<mxfile host="app.diagrams.net" modified="2024-04-10T08:21:58.717Z" agent="Mozilla/5.0 (Windows NT 10.0; Win64; x64) AppleWebKit/537.36 (KHTML, like Gecko) Chrome/123.0.0.0 Safari/537.36" etag="uxLcQ7fy26CfYkanUX6S" version="24.2.3" type="github">
  <diagram name="Page-1" id="qmp7L5_PuTplg2ZAJW9r">
    <mxGraphModel dx="1050" dy="522" grid="1" gridSize="10" guides="1" tooltips="1" connect="1" arrows="1" fold="1" page="1" pageScale="1" pageWidth="827" pageHeight="1169" math="0" shadow="0">
      <root>
        <mxCell id="0" />
        <mxCell id="1" parent="0" />
        <mxCell id="xs3YLlAJ-Z5TANyqH-92-1" value="" style="edgeStyle=orthogonalEdgeStyle;rounded=0;orthogonalLoop=1;jettySize=auto;html=1;sketch=1;curveFitting=1;jiggle=2;fontFamily=Comic Sans MS;fontColor=#666666;" edge="1" parent="1" source="xs3YLlAJ-Z5TANyqH-92-2" target="xs3YLlAJ-Z5TANyqH-92-4">
          <mxGeometry relative="1" as="geometry" />
        </mxCell>
        <mxCell id="xs3YLlAJ-Z5TANyqH-92-2" value="Start" style="rounded=0;whiteSpace=wrap;html=1;sketch=1;curveFitting=1;jiggle=2;fontFamily=Comic Sans MS;fillColor=#f8cecc;strokeColor=#b85450;fontColor=#666666;" vertex="1" parent="1">
          <mxGeometry x="240" y="110" width="120" height="60" as="geometry" />
        </mxCell>
        <mxCell id="xs3YLlAJ-Z5TANyqH-92-3" value="" style="edgeStyle=orthogonalEdgeStyle;rounded=0;orthogonalLoop=1;jettySize=auto;html=1;sketch=1;curveFitting=1;jiggle=2;fontFamily=Comic Sans MS;fontColor=#666666;" edge="1" parent="1" source="xs3YLlAJ-Z5TANyqH-92-4" target="xs3YLlAJ-Z5TANyqH-92-7">
          <mxGeometry relative="1" as="geometry" />
        </mxCell>
        <mxCell id="xs3YLlAJ-Z5TANyqH-92-4" value="Enter Your Website" style="rounded=0;whiteSpace=wrap;html=1;sketch=1;curveFitting=1;jiggle=2;fontFamily=Comic Sans MS;fillColor=#dae8fc;strokeColor=#6c8ebf;fontColor=#666666;" vertex="1" parent="1">
          <mxGeometry x="240" y="230" width="120" height="60" as="geometry" />
        </mxCell>
        <mxCell id="xs3YLlAJ-Z5TANyqH-92-5" value="" style="edgeStyle=orthogonalEdgeStyle;rounded=0;orthogonalLoop=1;jettySize=auto;html=1;sketch=1;curveFitting=1;jiggle=2;fontFamily=Comic Sans MS;fontColor=#666666;" edge="1" parent="1" source="xs3YLlAJ-Z5TANyqH-92-7" target="xs3YLlAJ-Z5TANyqH-92-9">
          <mxGeometry relative="1" as="geometry" />
        </mxCell>
        <mxCell id="xs3YLlAJ-Z5TANyqH-92-6" value="" style="edgeStyle=orthogonalEdgeStyle;rounded=0;orthogonalLoop=1;jettySize=auto;html=1;sketch=1;curveFitting=1;jiggle=2;fontFamily=Comic Sans MS;fontColor=#666666;" edge="1" parent="1" source="xs3YLlAJ-Z5TANyqH-92-7" target="xs3YLlAJ-Z5TANyqH-92-18">
          <mxGeometry relative="1" as="geometry" />
        </mxCell>
        <mxCell id="xs3YLlAJ-Z5TANyqH-92-7" value="Have an Account" style="rhombus;whiteSpace=wrap;html=1;rounded=0;sketch=1;curveFitting=1;jiggle=2;fontFamily=Comic Sans MS;fillColor=#fff2cc;strokeColor=#d6b656;fontColor=#666666;" vertex="1" parent="1">
          <mxGeometry x="240" y="340" width="120" height="110" as="geometry" />
        </mxCell>
        <mxCell id="xs3YLlAJ-Z5TANyqH-92-8" value="" style="edgeStyle=orthogonalEdgeStyle;rounded=0;orthogonalLoop=1;jettySize=auto;html=1;sketch=1;curveFitting=1;jiggle=2;fontFamily=Comic Sans MS;fontColor=#666666;" edge="1" parent="1" source="xs3YLlAJ-Z5TANyqH-92-9" target="xs3YLlAJ-Z5TANyqH-92-11">
          <mxGeometry relative="1" as="geometry" />
        </mxCell>
        <mxCell id="xs3YLlAJ-Z5TANyqH-92-9" value="Log in" style="whiteSpace=wrap;html=1;rounded=0;sketch=1;curveFitting=1;jiggle=2;fontFamily=Comic Sans MS;fillColor=#dae8fc;strokeColor=#6c8ebf;fontColor=#666666;" vertex="1" parent="1">
          <mxGeometry x="240" y="510" width="120" height="60" as="geometry" />
        </mxCell>
        <mxCell id="xs3YLlAJ-Z5TANyqH-92-10" value="" style="edgeStyle=orthogonalEdgeStyle;rounded=0;orthogonalLoop=1;jettySize=auto;html=1;sketch=1;curveFitting=1;jiggle=2;fontFamily=Comic Sans MS;fontColor=#666666;" edge="1" parent="1" source="xs3YLlAJ-Z5TANyqH-92-11" target="xs3YLlAJ-Z5TANyqH-92-14">
          <mxGeometry relative="1" as="geometry" />
        </mxCell>
        <mxCell id="xs3YLlAJ-Z5TANyqH-92-11" value="Enter Email and Password" style="whiteSpace=wrap;html=1;rounded=0;sketch=1;curveFitting=1;jiggle=2;fontFamily=Comic Sans MS;fillColor=#dae8fc;strokeColor=#6c8ebf;fontColor=#666666;" vertex="1" parent="1">
          <mxGeometry x="240" y="630" width="120" height="60" as="geometry" />
        </mxCell>
        <mxCell id="xs3YLlAJ-Z5TANyqH-92-12" value="" style="edgeStyle=orthogonalEdgeStyle;rounded=0;orthogonalLoop=1;jettySize=auto;html=1;sketch=1;curveFitting=1;jiggle=2;fontFamily=Comic Sans MS;fontColor=#666666;" edge="1" parent="1" source="xs3YLlAJ-Z5TANyqH-92-14" target="xs3YLlAJ-Z5TANyqH-92-16">
          <mxGeometry relative="1" as="geometry" />
        </mxCell>
        <mxCell id="xs3YLlAJ-Z5TANyqH-92-13" value="" style="edgeStyle=orthogonalEdgeStyle;rounded=0;orthogonalLoop=1;jettySize=auto;html=1;entryX=0;entryY=0.5;entryDx=0;entryDy=0;sketch=1;curveFitting=1;jiggle=2;fontFamily=Comic Sans MS;fontColor=#666666;" edge="1" parent="1" source="xs3YLlAJ-Z5TANyqH-92-14" target="xs3YLlAJ-Z5TANyqH-92-9">
          <mxGeometry relative="1" as="geometry">
            <mxPoint x="160" y="807.5" as="targetPoint" />
            <Array as="points">
              <mxPoint x="120" y="808" />
              <mxPoint x="120" y="540" />
            </Array>
          </mxGeometry>
        </mxCell>
        <mxCell id="xs3YLlAJ-Z5TANyqH-92-14" value="Email and&amp;nbsp;&lt;div&gt;Password valid&lt;/div&gt;" style="rhombus;whiteSpace=wrap;html=1;rounded=0;sketch=1;curveFitting=1;jiggle=2;fontFamily=Comic Sans MS;fillColor=#fff2cc;strokeColor=#d6b656;fontColor=#666666;" vertex="1" parent="1">
          <mxGeometry x="240" y="750" width="120" height="115" as="geometry" />
        </mxCell>
        <mxCell id="xs3YLlAJ-Z5TANyqH-92-15" value="" style="edgeStyle=orthogonalEdgeStyle;rounded=0;orthogonalLoop=1;jettySize=auto;html=1;sketch=1;curveFitting=1;jiggle=2;fontFamily=Comic Sans MS;fontColor=#666666;" edge="1" parent="1" source="xs3YLlAJ-Z5TANyqH-92-16" target="xs3YLlAJ-Z5TANyqH-92-27">
          <mxGeometry relative="1" as="geometry" />
        </mxCell>
        <mxCell id="xs3YLlAJ-Z5TANyqH-92-16" value="Login to the System" style="whiteSpace=wrap;html=1;rounded=0;sketch=1;curveFitting=1;jiggle=2;fontFamily=Comic Sans MS;fillColor=#dae8fc;strokeColor=#6c8ebf;fontColor=#666666;" vertex="1" parent="1">
          <mxGeometry x="240" y="920" width="120" height="60" as="geometry" />
        </mxCell>
        <mxCell id="xs3YLlAJ-Z5TANyqH-92-17" value="" style="edgeStyle=orthogonalEdgeStyle;rounded=0;orthogonalLoop=1;jettySize=auto;html=1;sketch=1;curveFitting=1;jiggle=2;fontFamily=Comic Sans MS;fontColor=#666666;" edge="1" parent="1" source="xs3YLlAJ-Z5TANyqH-92-18" target="xs3YLlAJ-Z5TANyqH-92-20">
          <mxGeometry relative="1" as="geometry" />
        </mxCell>
        <mxCell id="xs3YLlAJ-Z5TANyqH-92-18" value="Sign Up" style="whiteSpace=wrap;html=1;rounded=0;sketch=1;curveFitting=1;jiggle=2;fontFamily=Comic Sans MS;fillColor=#dae8fc;strokeColor=#6c8ebf;fontColor=#666666;" vertex="1" parent="1">
          <mxGeometry x="440" y="365" width="120" height="60" as="geometry" />
        </mxCell>
        <mxCell id="xs3YLlAJ-Z5TANyqH-92-19" value="" style="edgeStyle=orthogonalEdgeStyle;rounded=0;orthogonalLoop=1;jettySize=auto;html=1;sketch=1;curveFitting=1;jiggle=2;fontFamily=Comic Sans MS;fontColor=#666666;" edge="1" parent="1" source="xs3YLlAJ-Z5TANyqH-92-20" target="xs3YLlAJ-Z5TANyqH-92-22">
          <mxGeometry relative="1" as="geometry" />
        </mxCell>
        <mxCell id="xs3YLlAJ-Z5TANyqH-92-20" value="Fill out the information" style="whiteSpace=wrap;html=1;rounded=0;sketch=1;curveFitting=1;jiggle=2;fontFamily=Comic Sans MS;fillColor=#dae8fc;strokeColor=#6c8ebf;fontColor=#666666;" vertex="1" parent="1">
          <mxGeometry x="640" y="365" width="120" height="60" as="geometry" />
        </mxCell>
        <mxCell id="xs3YLlAJ-Z5TANyqH-92-21" style="edgeStyle=orthogonalEdgeStyle;rounded=0;orthogonalLoop=1;jettySize=auto;html=1;entryX=1;entryY=0.5;entryDx=0;entryDy=0;sketch=1;curveFitting=1;jiggle=2;fontFamily=Comic Sans MS;fontColor=#666666;" edge="1" parent="1" source="xs3YLlAJ-Z5TANyqH-92-22" target="xs3YLlAJ-Z5TANyqH-92-9">
          <mxGeometry relative="1" as="geometry" />
        </mxCell>
        <mxCell id="xs3YLlAJ-Z5TANyqH-92-22" value="Submit" style="rounded=0;whiteSpace=wrap;html=1;sketch=1;curveFitting=1;jiggle=2;fontFamily=Comic Sans MS;fillColor=#dae8fc;strokeColor=#6c8ebf;fontColor=#666666;" vertex="1" parent="1">
          <mxGeometry x="640" y="510" width="120" height="60" as="geometry" />
        </mxCell>
        <mxCell id="xs3YLlAJ-Z5TANyqH-92-23" value="YES" style="text;html=1;align=center;verticalAlign=middle;whiteSpace=wrap;rounded=0;sketch=1;curveFitting=1;jiggle=2;fontFamily=Comic Sans MS;fontColor=#666666;" vertex="1" parent="1">
          <mxGeometry x="293" y="455" width="60" height="30" as="geometry" />
        </mxCell>
        <mxCell id="xs3YLlAJ-Z5TANyqH-92-24" value="NO" style="text;html=1;align=center;verticalAlign=middle;whiteSpace=wrap;rounded=0;sketch=1;curveFitting=1;jiggle=2;fontFamily=Comic Sans MS;fontColor=#666666;" vertex="1" parent="1">
          <mxGeometry x="363" y="363" width="60" height="30" as="geometry" />
        </mxCell>
        <mxCell id="xs3YLlAJ-Z5TANyqH-92-25" value="YES" style="text;html=1;align=center;verticalAlign=middle;whiteSpace=wrap;rounded=0;sketch=1;curveFitting=1;jiggle=2;fontFamily=Comic Sans MS;fontColor=#666666;" vertex="1" parent="1">
          <mxGeometry x="293" y="870" width="60" height="30" as="geometry" />
        </mxCell>
        <mxCell id="xs3YLlAJ-Z5TANyqH-92-26" value="NO" style="text;html=1;align=center;verticalAlign=middle;whiteSpace=wrap;rounded=0;sketch=1;curveFitting=1;jiggle=2;fontFamily=Comic Sans MS;fontColor=#666666;" vertex="1" parent="1">
          <mxGeometry x="110" y="660" width="60" height="30" as="geometry" />
        </mxCell>
        <mxCell id="xs3YLlAJ-Z5TANyqH-92-27" value="End" style="whiteSpace=wrap;html=1;rounded=0;sketch=1;curveFitting=1;jiggle=2;fontFamily=Comic Sans MS;fillColor=#f8cecc;strokeColor=#b85450;fontColor=#666666;" vertex="1" parent="1">
          <mxGeometry x="240" y="1030" width="120" height="60" as="geometry" />
        </mxCell>
        <mxCell id="xs3YLlAJ-Z5TANyqH-92-28" value="Log in Process Flowchart" style="text;html=1;align=center;verticalAlign=middle;resizable=0;points=[];autosize=1;strokeColor=none;fillColor=none;fontFamily=Architects Daughter;fontSource=https://fonts.googleapis.com/css?family=Architects+Daughter;fontSize=20;fontStyle=1;fontColor=#808080;" vertex="1" parent="1">
          <mxGeometry x="279" y="20" width="270" height="40" as="geometry" />
        </mxCell>
      </root>
    </mxGraphModel>
  </diagram>
</mxfile>
